<?xml version="1.0" encoding="UTF-8" standalone="no"?>
<!-- Created with Inkscape (http://www.inkscape.org/) -->

<svg
   width="512"
   height="512"
   viewBox="0 0 512 512"
   version="1.1"
   id="svg1"
   xml:space="preserve"
   xmlns="http://www.w3.org/2000/svg"
   xmlns:svg="http://www.w3.org/2000/svg"><defs
     id="defs1"><linearGradient
       id="paint0_linear_87_8204"
       x1="12.4809"
       y1="2"
       x2="12.4809"
       y2="22.7407"
       gradientUnits="userSpaceOnUse"><stop
         stop-color="#327EBD"
         id="stop2" /><stop
         offset="1"
         stop-color="#1565A7"
         id="stop3" /></linearGradient><linearGradient
       id="paint1_linear_87_8204"
       x1="19.518999"
       y1="9.2592802"
       x2="19.518999"
       y2="30"
       gradientUnits="userSpaceOnUse"><stop
         stop-color="#FFDA4B"
         id="stop4" /><stop
         offset="1"
         stop-color="#F9C600"
         id="stop5" /></linearGradient></defs><g
     id="layer1"><circle
       style="fill:#ecfaff;fill-opacity:1;stroke-width:5.00001"
       id="path5"
       cx="256"
       cy="256"
       r="256" /><g
       id="g5"
       transform="matrix(0.86655206,0,0,0.86655206,29.946434,38.100986)"
       style="stroke-width:1.154"><g
         style="fill:#fbcc17;fill-opacity:1;stroke-width:2.97117"
         id="g1"
         transform="matrix(10.086037,-3.9574898,3.1785331,8.1007923,107.05041,156.43048)"><path
           d="M 29,22 H 3 C 1.346,22 0,20.654 0,19 V 3 C 0,1.346 1.346,0 3,0 h 26 c 1.654,0 3,1.346 3,3 v 16 c 0,1.654 -1.346,3 -3,3 z M 3,20 h 26 c 0.551,0 1,-0.448 1,-1 V 3.317 L 16.651,14.759 C 16.463,14.92 16.232,15 16,15 15.768,15 15.537,14.92 15.349,14.759 L 2,3.317 V 19 c 0,0.552 0.449,1 1,1 z M 28.464,2 H 3.536 L 16,12.683 Z"
           id="path1-8"
           style="fill:#fbcc17;fill-opacity:1;stroke-width:2.97117" /></g><path
         class="st0"
         d="m 276.99733,320.27196 c 13.24726,-20.78104 20.92374,-45.43617 20.92374,-71.85832 0,-73.89778 -60.07357,-134.00686 -133.92765,-134.00686 -26.40713,0 -51.04792,7.68126 -71.815979,20.93604 -16.547132,10.55575 -30.628752,24.64556 -41.178359,41.20226 -13.247265,20.78104 -20.9333,45.44572 -20.9333,71.86856 0,73.88822 60.083125,134.00616 133.927638,134.00616 26.40714,0 51.05748,-7.69081 71.82623,-20.94559 16.54645,-10.55575 30.62807,-24.64556 41.17768,-41.20225 z m -69.57443,12.78912 c -13.02399,6.7199 -27.79454,10.51683 -43.42948,10.51683 -52.43532,0 -95.108278,-42.69754 -95.108278,-95.16427 0,-15.64382 3.794882,-30.42324 10.510689,-43.45475 9.093242,-17.65391 23.544239,-32.10355 41.187229,-41.19269 13.024,-6.71991 27.78498,-10.51684 43.40968,-10.51684 52.44557,0 95.10829,42.68798 95.10829,95.16428 0,15.63425 -3.79488,30.40411 -10.51069,43.43562 -9.083,17.65392 -23.52445,32.11311 -41.16744,41.21182 z"
         id="path2"
         style="fill:#2573b3;fill-opacity:1;stroke-width:1.80312" /><g
         id="g4"
         transform="translate(-7.1779662,28.711865)"
         style="stroke-width:1.154"><path
           class="st0"
           d="M 378.30243,385.53974 300.98394,308.3694 c -11.00571,16.0808 -25.10645,30.18017 -41.17768,41.20226 l 77.3185,77.17034 c 5.68686,5.69027 13.14075,8.53541 20.5844,8.53541 7.4532,0 14.9071,-2.84514 20.59396,-8.53541 11.36416,-11.38124 11.36416,-29.82171 -6.9e-4,-41.20226 z"
           id="path3"
           style="fill:#2573b3;fill-opacity:1;stroke-width:1.80312" /><circle
           style="fill:#ffffff;fill-opacity:1;stroke-width:5.77"
           id="path4"
           cx="171.17139"
           cy="219.70143"
           r="110" /></g><g
         style="fill:none;stroke-width:6.73162"
         id="g2"
         transform="matrix(4.2857449,0,0,4.2857143,95.421934,179.84187)"><path
           fill-rule="evenodd"
           clip-rule="evenodd"
           d="M 13.0164,2 C 10.8193,2 9.03825,3.72453 9.03825,5.85185 V 8.51852 H 15.9235 V 9.25926 H 5.97814 C 3.78107,9.25926 2,10.9838 2,13.1111 v 5.7778 c 0,2.1273 1.78107,3.8518 3.97814,3.8518 h 2.29508 v -3.2592 c 0,-2.1273 1.78108,-3.8519 3.97818,-3.8519 h 7.3442 c 1.8591,0 3.3661,-1.4592 3.3661,-3.2592 V 5.85185 C 22.9617,3.72453 21.1807,2 18.9836,2 Z m -0.918,4.74074 c 0.7605,0 1.377,-0.59696 1.377,-1.33333 0,-0.73638 -0.6165,-1.33334 -1.377,-1.33334 -0.7606,0 -1.3771,0.59696 -1.3771,1.33334 0,0.73637 0.6165,1.33333 1.3771,1.33333 z"
           fill="url(#paint0_linear_87_8204)"
           id="path1-2"
           style="fill:url(#paint0_linear_87_8204);stroke-width:6.73162" /><path
           fill-rule="evenodd"
           clip-rule="evenodd"
           d="m 18.9834,30 c 2.1971,0 3.9782,-1.7245 3.9782,-3.8518 v -2.6667 h -6.8853 v -0.7407 h 9.9454 c 2.1971,0 3.9781,-1.7246 3.9781,-3.8519 v -5.7778 c 0,-2.1273 -1.781,-3.85182 -3.9781,-3.85182 h -2.2951 v 3.25922 c 0,2.1274 -1.7811,3.8519 -3.9781,3.8519 h -7.3443 c -1.8591,0 -3.36611,1.4592 -3.36611,3.2592 v 6.5186 C 9.03809,28.2755 10.8192,30 13.0162,30 Z m 0.9181,-4.7407 c -0.7606,0 -1.3771,0.5969 -1.3771,1.3333 0,0.7364 0.6165,1.3333 1.3771,1.3333 0.7605,0 1.377,-0.5969 1.377,-1.3333 0,-0.7364 -0.6165,-1.3333 -1.377,-1.3333 z"
           fill="url(#paint1_linear_87_8204)"
           id="path2-4"
           style="fill:url(#paint1_linear_87_8204);stroke-width:6.73162" /></g></g></g><style
     type="text/css"
     id="style1">
	.st0{fill:#000000;}
</style><style
     type="text/css"
     id="style1-0">
	.st0{fill:#000000;}
</style></svg>
