<?xml version="1.0" encoding="UTF-8" standalone="no"?>
<svg
   version="1.2"
   viewBox="0 0 81.943878 77.978943"
   width="81.943878"
   height="77.978943"
   id="svg30"
   xml:space="preserve"
   xmlns="http://www.w3.org/2000/svg"
   xmlns:svg="http://www.w3.org/2000/svg"><defs
     id="defs14"><linearGradient
       id="g3"
       x2="1"
       gradientUnits="userSpaceOnUse"
       gradientTransform="matrix(-7.524,0,0,9.677,329.937,201.947)"><stop
         offset="0"
         stop-color="#353332"
         id="stop5" /><stop
         offset="1"
         stop-color="#282726"
         id="stop6" /></linearGradient></defs><style
     id="style14">
		.s0 { fill: #577286 } 
		.s1 { fill: url(#g1) } 
		.s2 { fill: #a8aeaf } 
		.s3 { fill: url(#g2) } 
		.s4 { fill: #cbcdcd } 
		.s5 { fill: #383534 } 
		.s6 { fill: url(#g3) } 
		.s7 { opacity: .5;mix-blend-mode: screen;fill: url(#g4) } 
		.s8 { opacity: .3;mix-blend-mode: screen;fill: url(#g5) } 
		.s9 { opacity: .6;mix-blend-mode: multiply;fill: #5f8e96 } 
		.s10 { opacity: .2;mix-blend-mode: screen;fill: #383534 } 
		.s11 { fill: url(#g6) } 
		.s12 { fill: url(#g7) } 
	</style><path
     id="&lt;Compound Path&gt;"
     class="s0"
     d="m 6.1999982,71.370009 c 0.62,-0.35 1.87,-0.61 3.57,-0.7 l 4.2799998,-2.46 -5.6599998,-3.26 c -0.4,-0.23 -0.28,-0.44 0.16,-0.62 q -0.11,0.04 -0.2,0.08 c 0,0 25.4999998,-14.48 32.7099998,-18.53 0.84,-0.47 2.74,-0.54 3.45,-0.13 l 7.19,4.15 0.54,0.32 0.54,0.31 1.78,1.02 q 0.48,-0.38 1.07,-0.74 c 1.61,-0.97 3.58,-1.61 5.66,-1.95 5.22,-1.69 11.93,-1.29 16.44,1.24 5.51,3.09 5.63,8.19 0.28,11.39 -4.48,2.67 -11.36,3.17 -16.71,1.46 -1.98,-0.32 -3.85,-0.91 -5.42,-1.79 q -0.84,-0.48 -1.49,-1.03 c -9.59,5.61 -26.74,15.43 -26.74,15.43 q 0.08,-0.06 0.15,-0.12 c -0.32,0.25 -0.68,0.32 -1.08,0.09 l -5.65,-3.26 -4.25,2.46 c -0.29,1.74 -1.08,1.98 -2.62,2.86 -0.79,0.45 -2.22,0.94 -6.1799998,-1.22 -0.1,-0.05 -1,-0.57 -1.08,-0.62 -4.54,-2.78 -2.56,-3.31 -0.74,-4.38 z"
     style="opacity:0.5;mix-blend-mode:multiply;fill:#000000;fill-opacity:1" /><path
     id="&lt;Path&gt;"
     class="s1"
     d="m 38.629998,37.780009 q 0.44,-0.27 1.05,0.07 l 14.38,8.3 -31.75,18.44 -14.3699998,-8.3 q -0.61,-0.34 -1.05,-0.07 z"
     style="fill:#cdd9ee;fill-opacity:1" /><path
     id="path14"
     class="s2"
     d="m 23.329998,73.760009 31.74,-18.44 c 1.68,-0.98 1.35,-7.81 -1.01,-9.17 l -31.75,18.44 c 2.37,1.37 2.7,8.2 1.02,9.17 z" /><path
     id="path15"
     class="s3"
     d="m 22.309998,64.590009 31.75,-18.44 c 2.36,1.36 2.69,8.19 1.01,9.17 l -31.74,18.44 c 1.68,-0.97 1.35,-7.8 -1.02,-9.17 z"
     style="fill:#6885a9;fill-opacity:1" /><path
     id="path16"
     class="s4"
     d="m 7.9399982,56.290009 c -2.78,-1.6 -2.81,7.5 -0.03,9.1 l 14.3799998,8.3 c 2.77,1.6 2.79,-7.5 0.02,-9.1 z"
     style="fill:#b5c5dc;fill-opacity:1" /><g
     id="g19"
     transform="translate(-322.41,-134.67999)"><path
       id="path17"
       class="s5"
       d="m 327.71,201.11 c -0.01,0 7.47,-4.35 7.47,-4.35 0.52,-0.3 1.24,-0.25 2.03,0.2 1.58,0.91 2.85,3.12 2.85,4.93 -0.01,0.9 -0.32,1.53 -0.84,1.83 l -7.47,4.35 q 0.1,-0.07 0.19,-0.16 c -0.53,0.45 -1.32,0.48 -2.22,-0.04 -1.58,-0.91 -2.85,-3.12 -2.85,-4.93 0,-0.9 0.32,-1.54 0.84,-1.83 z m 0.91,-0.19 q -0.1,0 -0.19,0.01 0.09,-0.01 0.19,-0.01 z" /><path
       id="path18"
       class="s5"
       d="m 327.13,200.1 c 0.68,-0.4 1.63,-0.34 2.68,0.26 2.08,1.2 3.75,4.11 3.75,6.49 -0.01,1.19 -0.43,2.03 -1.1,2.42 l -3.62,2.1 c 0.68,-0.39 1.09,-1.23 1.1,-2.42 0,-2.38 -1.67,-5.29 -3.75,-6.49 -1.05,-0.6 -2,-0.66 -2.68,-0.26 z" /><path
       id="path19"
       class="s6"
       d="m 326.19,202.46 c 2.08,1.2 3.75,4.11 3.75,6.49 -0.01,2.39 -1.69,3.36 -3.77,2.16 -2.08,-1.2 -3.76,-4.11 -3.76,-6.5 0.01,-2.38 1.7,-3.35 3.78,-2.15 z"
       style="fill:url(#g3)" /></g><path
     id="path20"
     class="s7"
     d="m 3.7799982,68.760009 c 1.61,0.93 2.9,3.18 2.9,5.02 -0.01,1.85 -1.31,2.6 -2.92,1.67 -1.61,-0.93 -2.91,-3.18 -2.91,-5.03 0.01,-1.84 1.32,-2.59 2.93,-1.66 z"
     style="fill:#ffffff;fill-opacity:1" /><path
     id="path21"
     class="s8"
     d="m 1.9299982,69.450009 c 0,0.64 0.75,1.59 1.68,2.13 0.93,0.53 1.68,0.45 1.68,-0.19 0,-0.64 -0.75,-1.59 -1.68,-2.13 -0.93,-0.53 -1.68,-0.45 -1.68,0.19 z"
     style="fill:#ffffff;fill-opacity:1" /><path
     id="path22"
     class="s9"
     d="m 3.7799982,68.760009 c 1.61,0.93 2.9,3.18 2.9,5.02 q -0.02,1.06 -0.51,1.59 0.42,-0.51 0.44,-1.46 c 0.01,-1.77 -1.24,-3.92 -2.78,-4.81 -1.54,-0.89 -2.8,-0.18 -2.8,1.59 -0.01,1.32 0.69,2.86 1.68,3.92 -1.09,-1.11 -1.86,-2.77 -1.86,-4.19 0.01,-1.84 1.32,-2.59 2.93,-1.66 z"
     style="fill:#ffffff;fill-opacity:1" /><path
     id="path24"
     class="s5"
     d="m 33.759998,21.200009 c -0.11,-0.58 0.21,-1.19 0.98,-1.64 1.36,-0.78 3.55,-0.78 4.9,0 0.67,0.39 1,0.9 1,1.42 0,-0.01 0.06,26 0.06,26 0.01,0.51 -0.33,1.03 -1.02,1.43 -1.35,0.78 -3.54,0.78 -4.89,-0.01 -0.67,-0.39 -1,-0.89 -1,-1.4 l -0.07,-26.01 q 0.01,0.11 0.04,0.21 z m 6.63,0.53 q 0.04,-0.07 0.07,-0.15 -0.03,0.08 -0.08,0.15 z" /><path
     id="path25"
     class="s10"
     d="m 36.699998,25.400009 v 23.55 q -0.81,-0.06 -1.5,-0.35 v -23.27 q 0.74,0.09 1.5,0.07 z" /><path
     id="path26"
     class="s11"
     d="m 23.729998,12.130009 q 0.04,0.07 0.09,0.14 0.09,0.16 0.2,0.32 0.06,0.08 0.11,0.16 0.12,0.15 0.25,0.31 0.05,0.07 0.11,0.13 0.08,0.09 0.16,0.17 0.17,0.19 0.35,0.37 0.1,0.09 0.21,0.18 0.18,0.17 0.38,0.33 0.11,0.09 0.23,0.18 0.21,0.17 0.45,0.33 0.11,0.08 0.22,0.15 0.29,0.19 0.6,0.37 0.73,-1.21 2.34,-2.19 c 4.04,-2.41 10.67,-2.48 14.82,-0.15 1.18,0.66 2.02,1.45 2.54,2.28 q 0.06,-0.03 0.11,-0.06 c 1.73,-1.03 2.88,-2.26 3.48,-3.55 q -1.65,3.62 -3.3,7.23 -0.02,0.03 -0.03,0.06 -0.02,0.05 -0.05,0.1 -0.11,0.22 -0.25,0.43 -0.03,0.05 -0.06,0.09 -0.16,0.24 -0.36,0.47 -0.05,0.06 -0.09,0.11 -0.2,0.21 -0.42,0.42 -0.03,0.03 -0.05,0.05 -0.25,0.23 -0.54,0.44 -0.07,0.05 -0.14,0.1 -0.29,0.21 -0.63,0.41 -0.37,0.23 -0.77,0.42 -0.14,0.07 -0.28,0.13 -0.27,0.12 -0.55,0.24 -0.17,0.06 -0.34,0.12 -0.26,0.1 -0.53,0.19 -0.19,0.06 -0.38,0.11 -0.26,0.08 -0.52,0.15 -0.21,0.05 -0.42,0.09 -0.26,0.06 -0.52,0.11 -0.22,0.04 -0.44,0.07 -0.26,0.05 -0.52,0.08 -0.22,0.03 -0.45,0.05 -0.26,0.03 -0.53,0.05 -0.23,0.01 -0.46,0.02 -0.19,0.01 -0.39,0.02 -0.08,0 -0.17,0 -0.11,0.01 -0.22,0.01 -0.39,0 -0.78,-0.02 -0.06,0 -0.13,0 -0.44,-0.02 -0.88,-0.07 -0.1,-0.01 -0.21,-0.02 -0.15,-0.01 -0.3,-0.03 -0.22,-0.03 -0.43,-0.07 -0.09,-0.01 -0.18,-0.02 -0.43,-0.07 -0.85,-0.16 -0.1,-0.03 -0.2,-0.05 -0.34,-0.08 -0.67,-0.17 -0.1,-0.03 -0.2,-0.06 -0.41,-0.12 -0.8,-0.26 -0.06,-0.03 -0.13,-0.05 -0.33,-0.13 -0.65,-0.27 -0.1,-0.04 -0.2,-0.09 -0.37,-0.17 -0.72,-0.37 -0.29,-0.16 -0.55,-0.34 -0.06,-0.03 -0.12,-0.07 -0.07,-0.05 -0.13,-0.1 -0.14,-0.09 -0.26,-0.19 -0.09,-0.06 -0.17,-0.13 -0.05,-0.04 -0.1,-0.08 -0.02,-0.01 -0.04,-0.03 -0.08,-0.07 -0.15,-0.14 -0.08,-0.07 -0.15,-0.14 -0.09,-0.09 -0.18,-0.17 -0.05,-0.06 -0.1,-0.12 -0.04,-0.04 -0.08,-0.07 -0.08,-0.1 -0.11,-0.14 -0.09,-0.11 -0.18,-0.23 -0.02,-0.02 -0.03,-0.04 -0.03,-0.04 -0.06,-0.09 -0.08,-0.11 -0.16,-0.23 -0.03,-0.06 -0.06,-0.11 -0.03,-0.05 -0.05,-0.09 -0.02,-0.03 -0.03,-0.06 -0.06,-0.1 -0.1,-0.2 -1.67,-3.61 -3.34,-7.22 0.11,0.23 0.24,0.46 z"
     style="fill:#b5c5dc;fill-opacity:1" /><path
     id="path27"
     class="s4"
     d="m 23.019998,8.3500095 q 0.01,0.1 0.02,0.21 0.01,0.09 0.02,0.19 0.02,0.1 0.03,0.2 0.02,0.1 0.04,0.19 0.03,0.1 0.05,0.2 0.03,0.1 0.06,0.19 0.03,0.1 0.07,0.2 0.03,0.09 0.07,0.19 0.04,0.099999 0.09,0.1999995 0.04,0.09 0.08,0.19 0.05,0.1 0.11,0.2 0.05,0.09 0.1,0.17 0.07,0.12 0.14,0.24 0.06,0.08 0.11,0.16 0.08,0.12 0.17,0.24 0.06,0.07 0.12,0.15 0.16,0.2 0.35,0.41 0.21,0.22 0.42,0.42 0.09,0.08 0.18,0.16 0.1,0.09 0.2,0.18 0.1,0.08 0.2,0.16 0.11,0.09 0.22,0.17 0.11,0.08 0.22,0.16 0.11,0.08 0.23,0.16 0.12,0.08 0.24,0.16 0.12,0.08 0.25,0.16 0.2,0.12 0.42,0.24 0.46,0.26 0.95,0.49 0.11,0.05 0.23,0.1 0.48,0.22 1,0.41 0.06,0.02 0.12,0.05 0.41,0.14 0.84,0.27 0.33,0.1 0.67,0.19 0.3,0.08 0.59,0.16 0.35,0.08 0.7,0.15 0.34,0.07 0.68,0.12 0.15,0.03 0.3,0.05 0.53,0.09 1.07,0.14 0.05,0.01 0.1,0.01 0.59,0.06 1.18,0.09 0.11,0.01 0.21,0.01 0.32,0.01 0.65,0.01 0.39,0.01 0.78,0.01 0.32,-0.01 0.64,-0.03 0.36,-0.01 0.71,-0.04 0.32,-0.02 0.64,-0.05 0.35,-0.04 0.7,-0.08 0.3,-0.04 0.6,-0.09 0.37,-0.06 0.75,-0.13 0.5,-0.1 0.99,-0.22 0.56,-0.14 1.06,-0.29 0.15,-0.05 0.3,-0.1 0.53,-0.17 1.04,-0.37 0.38,-0.15 0.74,-0.32 0.19,-0.08 0.38,-0.17 0.54,-0.26 1.05,-0.56 c 2.63,-1.58 3.94,-3.61 3.93,-5.6399995 l 0.01,1.5 c 0,2.0299995 -1.31,4.0599995 -3.94,5.6299995 q -0.5,0.31 -1.05,0.57 -0.18,0.08 -0.37,0.17 -0.37,0.17 -0.74,0.32 -0.52,0.2 -1.05,0.37 -0.15,0.05 -0.3,0.1 -0.17,0.05 -0.35,0.1 -0.33,0.1 -0.67,0.18 -0.42,0.11 -0.79,0.18 -0.12,0.02 -0.24,0.04 -0.37,0.08 -0.75,0.13 -0.19,0.04 -0.39,0.07 -0.1,0.01 -0.21,0.03 -0.35,0.04 -0.7,0.07 -0.22,0.03 -0.44,0.05 -0.1,0.01 -0.19,0.01 -0.36,0.03 -0.72,0.04 -0.23,0.02 -0.46,0.03 -0.08,0 -0.17,0 -0.4,0 -0.79,-0.01 -0.23,0 -0.46,0 -0.09,0 -0.18,-0.01 -0.11,0 -0.22,-0.01 -0.58,-0.03 -1.15,-0.08 -0.08,-0.01 -0.12,-0.02 -0.54,-0.06 -1.08,-0.14 -0.15,-0.02 -0.3,-0.05 -0.14,-0.02 -0.28,-0.04 -0.2,-0.04 -0.39,-0.09 -0.36,-0.06 -0.7,-0.15 -0.3,-0.07 -0.59,-0.15 -0.34,-0.09 -0.68,-0.19 -0.12,-0.03 -0.24,-0.07 -0.3,-0.1 -0.6,-0.21 -0.06,-0.02 -0.12,-0.04 -0.51,-0.19 -1,-0.41 -0.11,-0.05 -0.23,-0.1 -0.49,-0.23 -0.95,-0.49 -0.17,-0.09 -0.33,-0.19 -0.04,-0.03 -0.09,-0.05 -0.13,-0.08 -0.25,-0.16 -0.12,-0.08 -0.23,-0.16 -0.12,-0.08 -0.24,-0.16 -0.11,-0.08 -0.22,-0.16 -0.11,-0.09 -0.22,-0.17 -0.1,-0.08 -0.2,-0.16 -0.1,-0.09 -0.2,-0.18 -0.07,-0.06 -0.13,-0.12 -0.02,-0.02 -0.04,-0.04 -0.22,-0.2 -0.41,-0.41 -0.21,-0.22 -0.37,-0.42 -0.02,-0.02 -0.04,-0.05 -0.03,-0.05 -0.07,-0.1 -0.09,-0.12 -0.17,-0.24 -0.06,-0.08 -0.11,-0.16 -0.08,-0.12 -0.15,-0.24 -0.03,-0.04 -0.06,-0.09 -0.02,-0.04 -0.04,-0.08 -0.05,-0.1 -0.1,-0.2 -0.05,-0.1 -0.09,-0.19 -0.05,-0.1 -0.09,-0.2 -0.02,-0.06 -0.05,-0.12 -0.01,-0.04 -0.02,-0.07 -0.03,-0.1 -0.06,-0.2 -0.04,-0.09 -0.06,-0.19 -0.03,-0.1 -0.05,-0.2 -0.02,-0.06 -0.03,-0.12 -0.01,-0.04 -0.01,-0.07 -0.02,-0.1 -0.03,-0.2 -0.02,-0.1 -0.03,-0.2 -0.01,-0.1 -0.01,-0.1999995 -0.01,-0.07 -0.01,-0.13 0,-0.06 0,-0.12 l -0.01,-1.5 q 0,0.12 0.01,0.25 z"
     style="fill:#6885a9;fill-opacity:1" /><path
     id="path28"
     class="s12"
     d="m 26.949998,2.4600095 c 5.35,-3.19999998 14.16,-3.28999998 19.67,-0.2 5.51,3.09 5.63,8.1899995 0.28,11.3999995 -5.36,3.2 -14.16,3.29 -19.67,0.19 -5.51,-3.09 -5.64,-8.1899995 -0.28,-11.3899995 z"
     style="fill:#cdd9ee;fill-opacity:1" /></svg>
