<?xml version="1.0" encoding="UTF-8" standalone="no"?>
<!-- Created with Inkscape (http://www.inkscape.org/) -->

<svg
   width="512"
   height="512"
   viewBox="0 0 512 512"
   version="1.1"
   id="svg1"
   xml:space="preserve"
   xmlns="http://www.w3.org/2000/svg"
   xmlns:svg="http://www.w3.org/2000/svg"><defs
     id="defs1" /><g
     id="layer1"><circle
       style="fill:#ffffff;fill-opacity:1;stroke-width:4.54965"
       id="path1"
       cx="256"
       cy="256"
       r="256" /><rect
       style="fill:none;stroke:#124f7e;stroke-width:49.2;stroke-dasharray:none;stroke-opacity:1"
       id="rect1"
       width="275.79999"
       height="275.8988"
       x="118.1"
       y="118.05059"
       ry="17.936691"
       rx="19.567299" /><path
       style="fill:#124f7e;fill-opacity:1;stroke-width:1"
       d="m 211.50969,260.14601 c 10.49526,40.21261 -80.2154,-307.344715 0,0 z m 32.80275,-21.26804 -1.11046,7.43531 37.44618,3.05205 c 39.14282,3.19033 41.51924,-0.68363 51.45418,-5.68055 14.87464,-7.48145 17.31936,-20.23052 5.66326,-29.53443 -1.90784,-1.52285 -9.42257,-5.80691 -16.6994,-9.52012 -16.44811,-8.39314 -22.45929,-9.67403 -37.63897,-8.02026 -7.01257,0.76399 -31.98907,3.44149 -40.19602,6.19587 -6.61887,2.22141 6.52644,8.95178 6.28761,8.71284 -0.23892,-0.23893 -12.67691,0.24867 -12.10432,-1.86417 -10.87067,11.66897 10.33963,6.17887 6.89794,29.22346 z m 50.86971,-14.94501 c -2.26682,-2.88278 -2.40962,-4.17096 -0.84383,-7.60888 2.30532,-5.06133 10.21376,-5.5111 12.77355,-0.72645 4.57125,8.54446 -5.97248,15.91142 -11.92972,8.33533 z"
       id="path4" /><path
       style="fill:none;fill-opacity:1;stroke:#12507f;stroke-width:49.2;stroke-linecap:round;stroke-linejoin:round;stroke-dasharray:none;stroke-opacity:1"
       d="M 207.53079,347.02311 V 223.69962 h 57.01668"
       id="path5" /><ellipse
       style="fill:#43c465;fill-opacity:1;stroke:none;stroke-width:34.9999;stroke-dasharray:none;stroke-opacity:1"
       id="path2"
       cx="206.65959"
       cy="355.23273"
       rx="39.400002"
       ry="39.41412" /></g></svg>
