<?xml version="1.0" encoding="UTF-8" standalone="no"?>
<!-- Created with Inkscape (http://www.inkscape.org/) -->

<svg
   width="512"
   height="512"
   viewBox="0 0 512 512"
   version="1.1"
   id="svg1"
   xml:space="preserve"
   xmlns="http://www.w3.org/2000/svg"
   xmlns:svg="http://www.w3.org/2000/svg"><defs
     id="defs1" /><g
     id="layer1"><circle
       style="fill:#ffffff;fill-opacity:1;stroke-width:4.54965"
       id="path1"
       cx="256"
       cy="256"
       r="256" /><rect
       style="fill:none;stroke:#124f7e;stroke-width:49.2;stroke-dasharray:none;stroke-opacity:1"
       id="rect1"
       width="315"
       height="314.99997"
       x="98.5"
       y="98.500015"
       ry="17.936691"
       rx="19.567299" /><path
       style="fill:#124f7e;fill-opacity:1;stroke-width:1"
       d="m 219.31694,260.73359 c 11.98697,45.91166 -91.61658,-350.902466 0,0 z m 37.46507,-24.2822 -0.75291,6.42826 42.25309,5.5454 c 44.47287,5.83671 47.42046,-0.78052 58.76747,-6.48562 16.9888,-8.54174 19.78099,-23.09764 6.46819,-33.72013 -2.179,-1.73867 -10.76182,-6.62988 -19.07292,-10.86934 -18.78591,-9.58264 -25.65147,-11.04506 -42.98867,-9.15691 -8.00928,0.87226 -36.79343,6.50523 -46.16685,9.64996 -7.55962,2.53624 7.71175,7.64446 7.43897,7.37165 -0.27288,-0.27279 -5.97486,9.55751 -5.32089,7.14523 -12.41574,13.32273 0.81682,0.25809 -0.62548,24.0915 z m 58.09992,-17.06306 c -2.58901,-3.29134 -2.7521,-4.76208 -0.96376,-8.68723 2.63297,-5.77864 11.66546,-6.29215 14.58908,-0.82941 5.22096,9.75541 -6.82137,18.16643 -13.62532,9.51664 z"
       id="path4" /><path
       style="fill:none;fill-opacity:1;stroke:#12507f;stroke-width:49.2;stroke-linecap:round;stroke-linejoin:round;stroke-dasharray:none;stroke-opacity:1"
       d="M 200.64176,359.92316 V 219.12192 h 65.12058"
       id="path5" /><circle
       style="fill:#43c465;fill-opacity:1;stroke:none;stroke-width:34.9999;stroke-dasharray:none;stroke-opacity:1"
       id="path2"
       cx="199.64674"
       cy="369.29626"
       r="45" /></g></svg>
